<?xml version="1.0" encoding="UTF-8" standalone="no"?>
<!-- Creator: CorelDRAW X5 -->

<svg
   xmlns:dc="http://purl.org/dc/elements/1.1/"
   xmlns:cc="http://creativecommons.org/ns#"
   xmlns:rdf="http://www.w3.org/1999/02/22-rdf-syntax-ns#"
   xmlns:svg="http://www.w3.org/2000/svg"
   xmlns="http://www.w3.org/2000/svg"
   xmlns:sodipodi="http://sodipodi.sourceforge.net/DTD/sodipodi-0.dtd"
   xmlns:inkscape="http://www.inkscape.org/namespaces/inkscape"
   xml:space="preserve"
   width="304.8mm"
   height="304.8mm"
   style="shape-rendering:geometricPrecision; text-rendering:geometricPrecision; image-rendering:optimizeQuality; fill-rule:evenodd; clip-rule:evenodd"
   viewBox="0 0 305 305"
   id="svg3080"
   version="1.1"
   inkscape:version="0.48.2 r9819"
   sodipodi:docname="S2_ULS_Rainbowduino_Case_for_RPi_Zero_v6_Final.svg"><metadata
   id="metadata3173"><rdf:RDF><cc:Work
       rdf:about=""><dc:format>image/svg+xml</dc:format><dc:type
         rdf:resource="http://purl.org/dc/dcmitype/StillImage" /></cc:Work></rdf:RDF></metadata><sodipodi:namedview
   pagecolor="#ffffff"
   bordercolor="#666666"
   borderopacity="1"
   objecttolerance="10"
   gridtolerance="10"
   guidetolerance="10"
   inkscape:pageopacity="0"
   inkscape:pageshadow="2"
   inkscape:window-width="1920"
   inkscape:window-height="1058"
   id="namedview3171"
   showgrid="false"
   inkscape:zoom="0.87407407"
   inkscape:cx="540"
   inkscape:cy="500.83187"
   inkscape:window-x="-8"
   inkscape:window-y="-8"
   inkscape:window-maximized="1"
   inkscape:current-layer="svg3080" />
 <defs
   id="defs3082">
  <style
   type="text/css"
   id="style3084">
   
    .str0 {stroke:red;stroke-width:0.0762}
    .str3 {stroke:black;stroke-width:0.1764}
    .str4 {stroke:red;stroke-width:0.1764}
    .str2 {stroke:black;stroke-width:0.3969}
    .str1 {stroke:black;stroke-width:0.7112}
    .fil0 {fill:none}
    .fil2 {fill:black}
    .fil1 {fill:black;fill-rule:nonzero}
    .fil3 {fill:white;fill-rule:nonzero}
   
  </style>
 
  
  
  
  
  
  
  
  
  
  
  
 
   
   
   
   
  
    
    
   
    
    
   
    
    
   
    
    
   
   
   
  </defs>
 <g
   id="Box_x0020_Sides">
   <polygon
   style="fill:none;stroke:#ff0000;stroke-width:0.0762"
   id="polygon3089"
   points="37,25 43,25 43,22 47,22 47,25 51,25 51,22 55,22 55,25 58,25 58,22 62,22 62,25 69,25 69,22 75,22 75,27 72,27 72,32 75,32 75,36 72,36 72,39 75,39 75,43 72,43 72,47 75,47 75,51 72,51 72,55 75,55 75,58 72,58 72,62 75,62 75,66 72,66 72,70 75,70 75,74 72,74 72,78 75,78 75,81 72,81 72,85 75,85 75,89 72,89 72,93 75,93 75,97 72,97 72,100 75,100 75,104 72,104 72,108 75,108 75,112 72,112 72,116 75,116 75,119 72,119 72,124 75,124 75,129 69,129 69,126 62,126 62,129 58,129 58,126 55,126 55,129 51,129 51,126 47,126 47,129 43,129 43,126 37,126 37,129 31,129 31,124 34,124 34,119 31,119 31,116 34,116 34,112 31,112 31,108 34,108 34,104 31,104 31,100 34,100 34,97 31,97 31,93 34,93 34,89 31,89 31,85 34,85 34,81 31,81 31,78 34,78 34,74 31,74 31,70 34,70 34,66 31,66 31,62 34,62 34,58 31,58 31,55 34,55 34,51 31,51 31,47 34,47 34,43 31,43 31,39 34,39 34,36 31,36 31,32 34,32 34,27 31,27 31,22 37,22 "
   class="fil0 str0" />
   <polygon
   style="fill:none;stroke:#ff0000;stroke-width:0.0762"
   id="polygon3091"
   points="81,25 87,25 87,22 91,22 91,25 95,25 95,22 99,22 99,25 103,25 103,22 106,22 106,25 113,25 113,22 119,22 119,27 116,27 116,32 119,32 119,36 116,36 116,39 119,39 119,43 116,43 116,47 119,47 119,51 116,51 116,55 119,55 119,58 116,58 116,62 119,62 119,66 116,66 116,70 119,70 119,74 116,74 116,78 119,78 119,81 116,81 116,85 119,85 119,89 116,89 116,93 119,93 119,97 116,97 116,100 119,100 119,104 116,104 116,108 119,108 119,112 116,112 116,116 119,116 119,119 116,119 116,124 119,124 119,129 113,129 113,126 106,126 106,129 103,129 103,126 99,126 99,129 95,129 95,126 91,126 91,129 87,129 87,126 81,126 81,129 75,129 75,124 78,124 78,119 75,119 75,116 78,116 78,112 75,112 75,108 78,108 78,104 75,104 75,100 78,100 78,97 75,97 75,93 78,93 78,89 75,89 75,85 78,85 78,81 75,81 75,78 78,78 78,74 75,74 75,70 78,70 78,66 75,66 75,62 78,62 78,58 75,58 75,55 78,55 78,51 75,51 75,47 78,47 78,43 75,43 75,39 78,39 78,36 75,36 75,32 78,32 78,27 75,27 75,22 81,22 "
   class="fil0 str0" />
   <polygon
   style="fill:none;stroke:#ff0000;stroke-width:0.0762"
   id="polygon3093"
   points="124,25 129,25 129,22 133,22 133,25 136,25 136,22 140,22 140,25 144,25 144,22 148,22 148,25 152,25 152,22 156,22 156,25 159,25 159,22 163,22 163,25 167,25 167,22 171,22 171,25 175,25 175,22 178,22 178,25 182,25 182,22 186,22 186,25 190,25 190,22 194,22 194,25 197,25 197,22 201,22 201,25 205,25 205,22 209,22 209,25 213,25 213,22 216,22 216,25 221,25 221,22 223,22 223,27 226,27 226,32 223,32 223,36 226,36 226,39 223,39 223,43 226,43 226,47 223,47 223,51 226,51 226,55 223,55 223,58 226,58 226,62 223,62 223,66 226,66 226,70 223,70 223,74 226,74 226,78 223,78 223,81 226,81 226,85 223,85 223,89 226,89 226,93 223,93 223,97 226,97 226,100 223,100 223,104 226,104 226,108 223,108 223,112 226,112 226,116 223,116 223,119 226,119 226,124 223,124 223,129 221,129 221,126 216,126 216,129 213,129 213,126 209,126 209,129 205,129 205,126 201,126 201,129 197,129 197,126 194,126 194,129 190,129 190,126 186,126 186,129 182,129 182,126 178,126 178,129 175,129 175,126 171,126 171,129 167,129 167,126 163,126 163,129 159,129 159,126 156,126 156,129 152,129 152,126 148,126 148,129 144,129 144,126 140,126 140,129 136,129 136,126 133,126 133,129 129,129 129,126 124,126 124,129 122,129 122,124 119,124 119,119 122,119 122,116 119,116 119,112 122,112 122,108 119,108 119,104 122,104 122,100 119,100 119,97 122,97 122,93 119,93 119,89 122,89 122,85 119,85 119,81 122,81 122,78 119,78 119,74 122,74 122,70 119,70 119,66 122,66 122,62 119,62 119,58 122,58 122,55 119,55 119,51 122,51 122,47 119,47 119,43 122,43 122,39 119,39 119,36 122,36 122,32 119,32 119,27 122,27 122,22 124,22 "
   class="fil0 str0" />
   <polygon
   style="fill:none;stroke:#ff0000;stroke-width:0.0762"
   id="polygon3095"
   points="124,132 129,132 129,129 133,129 133,132 136,132 136,129 140,129 140,132 144,132 144,129 148,129 148,132 152,132 152,129 156,129 156,132 159,132 159,129 163,129 163,132 167,132 167,129 171,129 171,132 175,132 175,129 178,129 178,132 182,132 182,129 186,129 186,132 190,132 190,129 194,129 194,132 197,132 197,129 201,129 201,132 205,132 205,129 209,129 209,132 213,132 213,129 216,129 216,132 221,132 221,129 223,129 223,134 226,134 226,139 223,139 223,143 226,143 226,147 223,147 223,151 226,151 226,155 223,155 223,158 226,158 226,162 223,162 223,166 226,166 226,170 223,170 223,174 226,174 226,177 223,177 223,181 226,181 226,185 223,185 223,189 226,189 226,193 223,193 223,197 226,197 226,200 223,200 223,204 226,204 226,208 223,208 223,212 226,212 226,216 223,216 223,219 226,219 226,223 223,223 223,227 226,227 226,232 223,232 223,237 221,237 221,234 216,234 216,237 213,237 213,234 209,234 209,237 205,237 205,234 201,234 201,237 197,237 197,234 194,234 194,237 190,237 190,234 186,234 186,237 182,237 182,234 178,234 178,237 175,237 175,234 171,234 171,237 167,237 167,234 163,234 163,237 159,237 159,234 156,234 156,237 152,237 152,234 148,234 148,237 144,237 144,234 140,234 140,237 136,237 136,234 133,234 133,237 129,237 129,234 124,234 124,237 122,237 122,232 119,232 119,227 122,227 122,223 119,223 119,219 122,219 122,216 119,216 119,212 122,212 122,208 119,208 119,204 122,204 122,200 119,200 119,197 122,197 122,193 119,193 119,189 122,189 122,185 119,185 119,181 122,181 122,177 119,177 119,174 122,174 122,170 119,170 119,166 122,166 122,162 119,162 119,158 122,158 122,155 119,155 119,151 122,151 122,147 119,147 119,143 122,143 122,139 119,139 119,134 122,134 122,129 124,129 "
   class="fil0 str0" />
   <polygon
   style="fill:none;stroke:#ff0000;stroke-width:0.0762"
   id="polygon3097"
   points="37,129 43,129 43,132 47,132 47,129 51,129 51,132 55,132 55,129 58,129 58,132 62,132 62,129 69,129 69,132 72,132 72,134 75,134 75,139 72,139 72,143 75,143 75,147 72,147 72,151 75,151 75,155 72,155 72,158 75,158 75,162 72,162 72,166 75,166 75,170 72,170 72,174 75,174 75,177 72,177 72,181 75,181 75,185 72,185 72,189 75,189 75,193 72,193 72,197 75,197 75,200 72,200 72,204 75,204 75,208 72,208 72,212 75,212 75,216 72,216 72,219 75,219 75,223 72,223 72,227 75,227 75,232 72,232 72,234 69,234 69,237 62,237 62,234 58,234 58,237 55,237 55,234 51,234 51,237 47,237 47,234 43,234 43,237 37,237 37,234 34,234 34,232 31,232 31,227 34,227 34,223 31,223 31,219 34,219 34,216 31,216 31,212 34,212 34,208 31,208 31,204 34,204 34,200 31,200 31,197 34,197 34,193 31,193 31,189 34,189 34,185 31,185 31,181 34,181 34,177 31,177 31,174 34,174 34,170 31,170 31,166 34,166 34,162 31,162 31,158 34,158 34,155 31,155 31,151 34,151 34,147 31,147 31,143 34,143 34,139 31,139 31,134 34,134 34,132 37,132 "
   class="fil0 str0" />
   <polygon
   style="fill:none;stroke:#ff0000;stroke-width:0.0762"
   id="polygon3099"
   points="81,129 87,129 87,132 91,132 91,129 95,129 95,132 99,132 99,129 103,129 103,132 106,132 106,129 113,129 113,132 116,132 116,134 119,134 119,139 116,139 116,143 119,143 119,147 116,147 116,151 119,151 119,155 116,155 116,158 119,158 119,162 116,162 116,166 119,166 119,170 116,170 116,174 119,174 119,177 116,177 116,181 119,181 119,185 116,185 116,189 119,189 119,193 116,193 116,197 119,197 119,200 116,200 116,204 119,204 119,208 116,208 116,212 119,212 119,216 116,216 116,219 119,219 119,223 116,223 116,227 119,227 119,232 116,232 116,234 113,234 113,237 106,237 106,234 103,234 103,237 99,237 99,234 95,234 95,237 91,237 91,234 87,234 87,237 81,237 81,234 78,234 78,232 75,232 75,227 78,227 78,223 75,223 75,219 78,219 78,216 75,216 75,212 78,212 78,208 75,208 75,204 78,204 78,200 75,200 75,197 78,197 78,193 75,193 75,189 78,189 78,185 75,185 75,181 78,181 78,177 75,177 75,174 78,174 78,170 75,170 75,166 78,166 78,162 75,162 75,158 78,158 78,155 75,155 75,151 78,151 78,147 75,147 75,143 78,143 78,139 75,139 75,134 78,134 78,132 81,132 "
   class="fil0 str0" />
  </g><circle
   style="fill:none;stroke:#ff0000;stroke-width:0.0762"
   sodipodi:ry="22"
   sodipodi:rx="22"
   sodipodi:cy="76"
   sodipodi:cx="173"
   r="22"
   cy="76"
   cx="173"
   class="fil0 str0"
   id="Speaker" /><rect
   style="fill:none;stroke:#ff0000;stroke-width:0.0762"
   height="10"
   width="10"
   y="136"
   x="168"
   class="fil0 str0"
   id="Power_x0020_Switch" /><rect
   style="fill:#000000;stroke:#ff0000;stroke-width:0.0762"
   id="rect3110"
   height="12"
   width="12"
   y="217"
   x="47"
   class="fil2 str0" /><rect
   style="fill:#000000;stroke:#ff0000;stroke-width:0.0762"
   id="rect3115"
   height="12"
   width="12"
   y="191"
   x="47"
   class="fil2 str0" /><rect
   style="fill:#000000;stroke:#ff0000;stroke-width:0.0762"
   id="rect3120"
   height="12"
   width="12"
   y="164"
   x="47"
   class="fil2 str0" /><rect
   style="fill:#000000;stroke:#ff0000;stroke-width:0.0762"
   id="rect3125"
   height="12"
   width="12"
   y="137"
   x="47"
   class="fil2 str0" /><g
   id="Button_x0020_Base">
   <rect
   style="fill:none;stroke:#ff0000;stroke-width:0.0762"
   id="rect3130"
   height="12"
   width="12"
   y="148"
   x="245"
   class="fil0 str0" />
   <rect
   style="fill:none;stroke:#ff0000;stroke-width:0.0762"
   id="rect3132"
   height="4"
   width="4"
   y="152"
   x="249"
   class="fil0 str0" />
   <rect
   style="fill:none;stroke:#ff0000;stroke-width:0.0762"
   id="rect3134"
   height="12"
   width="12"
   y="148"
   x="270"
   class="fil0 str0" />
   <rect
   style="fill:none;stroke:#ff0000;stroke-width:0.0762"
   id="rect3136"
   height="4"
   width="4"
   y="152"
   x="274"
   class="fil0 str0" />
   <rect
   style="fill:none;stroke:#ff0000;stroke-width:0.0762"
   id="rect3138"
   height="12"
   width="12"
   y="169"
   x="270"
   class="fil0 str0" />
   <rect
   style="fill:none;stroke:#ff0000;stroke-width:0.0762"
   id="rect3140"
   height="4"
   width="4"
   y="173"
   x="274"
   class="fil0 str0" />
   <rect
   style="fill:none;stroke:#ff0000;stroke-width:0.0762"
   id="rect3142"
   height="12"
   width="12"
   y="168"
   x="245"
   class="fil0 str0" />
   <rect
   style="fill:none;stroke:#ff0000;stroke-width:0.0762"
   id="rect3144"
   height="4"
   width="4"
   y="172"
   x="249"
   class="fil0 str0" />
  </g><circle
   style="fill:none;stroke:#ff0000;stroke-width:0.0762"
   sodipodi:ry="6"
   sodipodi:rx="6"
   sodipodi:cy="115"
   sodipodi:cx="208"
   r="6"
   cy="115"
   cx="208"
   class="fil0 str0"
   id="Adafruit_x0020_Prod_x0020_610_x0020_DC_x0020_Panel_x0020_Jack" /><g
   id="Rainbowduino_x0020_footprint_x0020_with_x0020_screw_x0020_holes">
   <rect
   style="fill:none;stroke:#000000;stroke-width:0.17640001"
   id="rect3148"
   height="59"
   width="59"
   y="46"
   x="143"
   class="fil0 str3" />
   <circle
   style="fill:none;stroke:#ff0000;stroke-width:0.0762"
   sodipodi:ry="2"
   sodipodi:rx="2"
   sodipodi:cy="49"
   sodipodi:cx="199"
   id="circle3150"
   r="2"
   cy="49"
   cx="199"
   class="fil0 str0" />
   <circle
   style="fill:none;stroke:#ff0000;stroke-width:0.0762"
   sodipodi:ry="2"
   sodipodi:rx="2"
   sodipodi:cy="49"
   sodipodi:cx="146"
   id="circle3152"
   r="2"
   cy="49"
   cx="146"
   class="fil0 str0" />
   <circle
   style="fill:none;stroke:#ff0000;stroke-width:0.0762"
   sodipodi:ry="2"
   sodipodi:rx="2"
   sodipodi:cy="102"
   sodipodi:cx="199"
   id="circle3154"
   r="2"
   cy="102"
   cx="199"
   class="fil0 str0" />
   <circle
   style="fill:none;stroke:#ff0000;stroke-width:0.0762"
   sodipodi:ry="2"
   sodipodi:rx="2"
   sodipodi:cy="102"
   sodipodi:cx="146"
   id="circle3156"
   r="2"
   cy="102"
   cx="146"
   class="fil0 str0" />
  </g><g
   id="Top_x0020_Shim">
   <rect
   style="fill:none;stroke:#ff0000;stroke-width:0.0762"
   id="rect3159"
   height="12"
   width="12"
   y="110"
   x="250"
   class="fil0 str0" />
   <rect
   style="fill:none;stroke:#ff0000;stroke-width:0.0762"
   id="rect3161"
   height="12"
   width="12"
   y="83"
   x="250"
   class="fil0 str0" />
   <rect
   style="fill:none;stroke:#ff0000;stroke-width:0.0762"
   id="rect3163"
   height="12"
   width="12"
   y="57"
   x="250"
   class="fil0 str0" />
   <rect
   style="fill:none;stroke:#ff0000;stroke-width:0.0762"
   id="rect3165"
   height="12"
   width="12"
   y="30"
   x="250"
   class="fil0 str0" />
   <rect
   style="fill:none;stroke:#ff0000;stroke-width:0.0762"
   id="rect3167"
   height="98"
   width="22"
   y="27"
   x="245"
   class="fil0 str0" />
  </g><rect
   style="fill:none;stroke:#ff0000;stroke-width:0.17640001"
   id="rect3169"
   height="59"
   width="59"
   y="151"
   x="143"
   class="fil0 str4" />
</svg>